<svg xmlns="http://www.w3.org/2000/svg" xmlns:xlink="http://www.w3.org/1999/xlink" width="200" height="27.601" viewBox="0 0 200 27.601"><defs><style>.a{fill:#293038;}.b{fill:url(#a);}.c{fill:url(#b);}</style><linearGradient id="a" x1="0.2" y1="0.864" x2="0.661" y2="0.352" gradientUnits="objectBoundingBox"><stop offset="0" stop-color="#8c6239"/><stop offset="1" stop-color="#d3b583"/></linearGradient><linearGradient id="b" x1="0.522" y1="0.393" x2="0.612" y2="1.473" xlink:href="#a"/></defs><g transform="translate(0.011 0.102)"><g transform="translate(-0.011 -0.102)"><path class="a" d="M.591,32.438a2.2,2.2,0,0,1-.6-1.6V10.806a2.138,2.138,0,0,1,.6-1.586,2.14,2.14,0,0,1,1.586-.6,2.2,2.2,0,0,1,1.62.6,2.146,2.146,0,0,1,.6,1.586V30.834a2.2,2.2,0,0,1-.6,1.6,2.152,2.152,0,0,1-1.62.614A2.1,2.1,0,0,1,.591,32.438Z" transform="translate(0.011 -6.873)"/><path class="a" d="M60.209,46a7.746,7.746,0,0,1,1.466,5.152v8.4a2,2,0,0,1-.562,1.5,2.138,2.138,0,0,1-1.552.546,2.2,2.2,0,0,1-1.57-.546,1.956,1.956,0,0,1-.58-1.5V51.392a4.424,4.424,0,0,0-.734-2.832,2.812,2.812,0,0,0-2.3-.886,3.892,3.892,0,0,0-2.952,1.16,4.314,4.314,0,0,0-1.11,3.1v7.61a1.956,1.956,0,0,1-.58,1.5,2.2,2.2,0,0,1-1.568.546,2.14,2.14,0,0,1-1.554-.546,2,2,0,0,1-.562-1.5v-13.2a1.874,1.874,0,0,1,.588-1.438,2.2,2.2,0,0,1,1.57-.546,2.03,2.03,0,0,1,1.45.53,1.8,1.8,0,0,1,.562,1.38V47.2a5.8,5.8,0,0,1,2.278-2.15,6.888,6.888,0,0,1,3.242-.75A5.575,5.575,0,0,1,60.209,46Z" transform="translate(-36.834 -35.415)"/><path class="a" d="M150.715,44.948a1.764,1.764,0,0,1,1-.308,2.144,2.144,0,0,1,1.416.53,1.648,1.648,0,0,1,.644,1.312,1.8,1.8,0,0,1-.2.82l-6.312,13.2a2.242,2.242,0,0,1-.87.99,2.364,2.364,0,0,1-1.244.34,2.486,2.486,0,0,1-1.246-.34,2.186,2.186,0,0,1-.9-.99l-6.358-13.19a1.736,1.736,0,0,1-.172-.786,1.664,1.664,0,0,1,.666-1.33,2.328,2.328,0,0,1,1.518-.546,1.884,1.884,0,0,1,1.8,1.2l4.778,10.544,4.744-10.526a2.082,2.082,0,0,1,.74-.92Z" transform="translate(-109.172 -35.691)"/><path class="a" d="M244.677,57.259a1.852,1.852,0,0,1,.358,1.2,2.071,2.071,0,0,1-1.262,1.774,11.362,11.362,0,0,1-2.628,1.04,10.8,10.8,0,0,1-2.8.4,8.693,8.693,0,0,1-6.38-2.32,8.518,8.518,0,0,1-2.352-6.36,9.72,9.72,0,0,1,1.024-4.538,7.442,7.442,0,0,1,2.882-3.07,8.164,8.164,0,0,1,4.214-1.092,7.556,7.556,0,0,1,3.924,1,6.71,6.71,0,0,1,2.6,2.8,9.21,9.21,0,0,1,.922,4.264q0,1.468-1.3,1.468H233.809a5.333,5.333,0,0,0,1.332,3.462,4.486,4.486,0,0,0,3.274,1.11,6.212,6.212,0,0,0,1.928-.274,19.145,19.145,0,0,0,1.894-.75,3.754,3.754,0,0,1,1.5-.546,1.15,1.15,0,0,1,.938.432Zm-9.622-8.872a5.165,5.165,0,0,0-1.246,3.14h7.712a4.875,4.875,0,0,0-1.024-3.156,3.381,3.381,0,0,0-2.662-1.076A3.647,3.647,0,0,0,235.055,48.387Z" transform="translate(-183.685 -35.412)"/><path class="a" d="M320.622,60.187a2.034,2.034,0,0,1-1.092-1.842,1.6,1.6,0,0,1,.372-1.118,1.178,1.178,0,0,1,.92-.426,3.736,3.736,0,0,1,1.6.546,15.139,15.139,0,0,0,2,.784,8.12,8.12,0,0,0,2.3.274,4.376,4.376,0,0,0,2.234-.478,1.48,1.48,0,0,0,.8-1.33,1.284,1.284,0,0,0-.324-.922,2.982,2.982,0,0,0-1.16-.632,24.765,24.765,0,0,0-2.542-.664,9.8,9.8,0,0,1-4.35-1.74,3.87,3.87,0,0,1-1.314-3.106,4.478,4.478,0,0,1,.89-2.706,5.724,5.724,0,0,1,2.438-1.876,8.884,8.884,0,0,1,3.532-.666,10.625,10.625,0,0,1,2.764.358,8.483,8.483,0,0,1,2.388,1.04,2.063,2.063,0,0,1,1.092,1.81,1.748,1.748,0,0,1-.376,1.142,1.14,1.14,0,0,1-.92.46,1.842,1.842,0,0,1-.734-.152,10.127,10.127,0,0,1-.9-.462,14.749,14.749,0,0,0-1.706-.768,5.34,5.34,0,0,0-1.774-.256,3.455,3.455,0,0,0-2,.512,1.618,1.618,0,0,0-.734,1.4,1.42,1.42,0,0,0,.75,1.3,10.731,10.731,0,0,0,2.9.888,16.217,16.217,0,0,1,3.588,1.094,4.229,4.229,0,0,1,1.858,1.534,4.45,4.45,0,0,1,.564,2.354,4.375,4.375,0,0,1-1.928,3.72,8.57,8.57,0,0,1-5.134,1.4A10.969,10.969,0,0,1,320.622,60.187Z" transform="translate(-255.618 -35.406)"/><path class="a" d="M407.251,40.981a1.388,1.388,0,0,1-.666,1.246,3.2,3.2,0,0,1-1.894.358l-.92-.068q-5.734-.4-5.732-6.142V28.936h-1.7a2.215,2.215,0,0,1-1.416-.4,1.7,1.7,0,0,1,0-2.4,2.165,2.165,0,0,1,1.416-.4h1.706V22.59a1.912,1.912,0,0,1,.58-1.466,2.2,2.2,0,0,1,1.568-.546,2.148,2.148,0,0,1,1.536.546,1.918,1.918,0,0,1,.58,1.466v3.14h2.9a2.206,2.206,0,0,1,1.416.4,1.7,1.7,0,0,1,0,2.4,2.2,2.2,0,0,1-1.416.4h-2.9v7.746q0,2.526,2.32,2.7l.922.068Q407.249,39.549,407.251,40.981Z" transform="translate(-315.534 -16.44)"/><path class="a" d="M468.272,10.665a2.142,2.142,0,0,1-.68-1.66,2.094,2.094,0,0,1,.68-1.632,3.046,3.046,0,0,1,3.668,0A2.072,2.072,0,0,1,472.64,9a2.142,2.142,0,0,1-.682,1.654,3.015,3.015,0,0,1-3.686.006Zm.324,20.371a1.915,1.915,0,0,1-.6-1.518V16.347a1.847,1.847,0,0,1,.6-1.5,2.246,2.246,0,0,1,1.518-.512,2.316,2.316,0,0,1,1.536.512,1.874,1.874,0,0,1,.614,1.5v13.17a1.878,1.878,0,0,1-.614,1.518,2.274,2.274,0,0,1-1.536.528,2.2,2.2,0,0,1-1.516-.528Z" transform="translate(-374.067 -5.384)"/><path class="a" d="M524.774,9.175a1.834,1.834,0,0,1,.614,1.434v20.4a1.918,1.918,0,0,1-.58,1.466,2.434,2.434,0,0,1-3.072,0,1.918,1.918,0,0,1-.58-1.466v-.854a5.335,5.335,0,0,1-2.166,2.184,6.55,6.55,0,0,1-3.224.784,6.894,6.894,0,0,1-3.838-1.092,7.232,7.232,0,0,1-2.628-3.086,10.675,10.675,0,0,1-.938-4.59,10.308,10.308,0,0,1,.938-4.538,6.888,6.888,0,0,1,6.466-4.06,6.674,6.674,0,0,1,3.2.75,5.2,5.2,0,0,1,2.15,2.116V10.541a1.8,1.8,0,0,1,.572-1.382,2.126,2.126,0,0,1,1.518-.53,2.288,2.288,0,0,1,1.568.546Zm-4.726,19.245a6.316,6.316,0,0,0,1.108-4,6.168,6.168,0,0,0-1.108-3.966,3.77,3.77,0,0,0-3.122-1.382,3.882,3.882,0,0,0-3.174,1.364,6.034,6.034,0,0,0-1.126,3.924,6.357,6.357,0,0,0,1.126,4.026,4.205,4.205,0,0,0,6.3.034Z" transform="translate(-406.682 -6.88)"/><path class="a" d="M614.942,60.633a7.32,7.32,0,0,1-2.986-3.036,10.521,10.521,0,0,1,0-9.188,7.351,7.351,0,0,1,2.986-3.02,9.153,9.153,0,0,1,4.488-1.058,9.266,9.266,0,0,1,4.49,1.052,7.238,7.238,0,0,1,2.968,3.02,10.7,10.7,0,0,1-.008,9.188,7.2,7.2,0,0,1-2.96,3.042,10.053,10.053,0,0,1-8.978,0Zm7.626-3.616a6.343,6.343,0,0,0,1.092-4.026,6.31,6.31,0,0,0-1.092-4,4.274,4.274,0,0,0-6.294,0,6.278,6.278,0,0,0-1.11,4,6.338,6.338,0,0,0,1.092,4.026,4.329,4.329,0,0,0,6.312,0Z" transform="translate(-488.714 -35.443)"/><path class="a" d="M724.3,44.967a1.662,1.662,0,0,1,.512,1.33,1.879,1.879,0,0,1-.444,1.366,2.726,2.726,0,0,1-1.6.58l-1.024.1a4.124,4.124,0,0,0-2.952,1.364,4.474,4.474,0,0,0-.938,2.9v7.166a1.893,1.893,0,0,1-.614,1.518,2.274,2.274,0,0,1-1.536.528,2.2,2.2,0,0,1-1.518-.528,1.915,1.915,0,0,1-.6-1.518v-13.2a1.824,1.824,0,0,1,.6-1.468,2.2,2.2,0,0,1,1.482-.518,2.062,2.062,0,0,1,1.434.494,1.82,1.82,0,0,1,.546,1.416v1.362a5.046,5.046,0,0,1,1.926-2.32,5.916,5.916,0,0,1,2.85-.922l.478-.034A1.817,1.817,0,0,1,724.3,44.967Z" transform="translate(-570.865 -35.642)"/><path class="b" d="M819.409,31.1a1.766,1.766,0,0,1-1.27-3l14.494-15.016a1.77,1.77,0,0,1,1.244-.54h.032a1.756,1.756,0,0,1,1.228.514L839.184,17l8.8-8.62-.958-.032a1.766,1.766,0,0,1,.064-3.532h.058L852.24,5h.068a.8.8,0,0,1,.1.012h.056a.609.609,0,0,1,.148.032l.038.012a.425.425,0,0,1,.116.036l.038.014.124.056.032.016a1.734,1.734,0,0,1,.624.53c.034.048.066.092.094.14s.058.1.082.154l.01.024c.012.028.026.056.036.086l.026.07c.014.044.026.084.036.122l.01.036c.012.056.022.108.03.16v.032a.5.5,0,0,0,.01.116v.012l.18,4.83a1.766,1.766,0,0,1-1.7,1.832h-.068a1.76,1.76,0,0,1-1.764-1.7l-.03-.816-10.118,9.924a1.766,1.766,0,0,1-2.468,0l-4.012-3.912-13.26,13.74A1.754,1.754,0,0,1,819.409,31.1Z" transform="translate(-654.102 -3.834)"/><path class="c" d="M795.858,29.66a1.726,1.726,0,0,1-1.724-1.724V7.513l-3.176,2.062a1.332,1.332,0,0,1-.822.256,1.5,1.5,0,0,1-1.166-.574,1.84,1.84,0,0,1-.45-1.222,1.562,1.562,0,0,1,.73-1.328l5.424-3.61a2.334,2.334,0,0,1,1.22-.378,1.67,1.67,0,0,1,1.2.484,1.74,1.74,0,0,1,.486,1.278V27.936A1.728,1.728,0,0,1,795.858,29.66Z" transform="translate(-630.808 -2.155)"/><path class="a" d="M863.5,27.5A13.8,13.8,0,1,1,867.6.538a1.828,1.828,0,1,1-1.082,3.492,10.136,10.136,0,1,0,7.116,9.688,1.828,1.828,0,0,1,3.656,0A13.8,13.8,0,0,1,863.5,27.5Z" transform="translate(-679.705 0.102)"/></g></g></svg>